<svg xmlns="http://www.w3.org/2000/svg" width="41.7" height="41.7" viewBox="0 0 41.7 41.7"><path fill="#fff" d="M146 171.7H-79v-225h225zm-112.9-1.1h86.4a25.8 25.8 0 0 0 25.3-25.6q.1-85.5 0-170.9a26.1 26.1 0 0 0-25.5-26.2c-5.8-.2-11.7-.1-17.5-.1H-51.1c-16.1.1-27 11.3-27 27.1 0 56.3.3 112.6-.2 168.9-.1 13.1 11.8 27.1 26.4 26.9 28.3-.3 56.7-.1 85-.1z"/><path fill="#93c841" d="M20.8 41.7c-5.3 0-10.6-.1-15.9 0a5.2 5.2 0 0 1-4.9-5C.1 26.1 0 15.6 0 5.1A5 5 0 0 1 5.1 0h31.8a5 5 0 0 1 4.8 4.9v32a4.9 4.9 0 0 1-4.7 4.8zm2.3-26v-2.8c.1-1.4.4-1.6 1.7-1.7h2.9V5.9c-2.2.1-4.3 0-6.4.3a4.6 4.6 0 0 0-4.1 4.7v4.8H14v4.7c0 .1.4.4.7.5h2.4V35a.9.9 0 0 0 .4.7h5.6v-15h4.2l.5-5z"/></svg>