<svg version="1.1" id="Layer_1" xmlns="http://www.w3.org/2000/svg" x="0" y="0" viewBox="0 0 125.7 275.1" xml:space="preserve">
  <style>
    .st0{fill:#216900;stroke:#000;stroke-miterlimit:10}.st1{fill:#38373c}.st3,.st5{fill:#b5b2b4}.st5{stroke:#000;stroke-miterlimit:10}
  </style>
  <path class="st0" d="M63 75l-3 122c0 3 0 24-2 25-1 1-1-21-1-23l1-121 3-6c1-1 2 0 2 3z"/>
  <path class="st1" d="M63 74l-4 2c-1 1-1 0-1-1l1-2 4-3 1 1-1 3z"/>
  <path class="st1" d="M63 70l-4 3-1-1 1-3 4-3 1 2-1 2z"/>
  <path class="st1" d="M62 68l-3 2-1-3V55l2-5 3-2 1 3v12l-2 5z"/>
  <linearGradient id="SVGID_1_" gradientUnits="userSpaceOnUse" x1="78" y1="-6.1" x2="77.9" y2="-18.2" gradientTransform="rotate(-10 327 106)">
    <stop offset="0" stop-color="#ba8e59"/>
    <stop offset="1" stop-color="#4d3b3b"/>
  </linearGradient>
  <path d="M62 51l-2 1c-1 1-1-1-1-2V33l5-3v16l-2 5z" fill="url(#SVGID_1_)" stroke="#000" stroke-miterlimit="10"/>
  <path class="st3" d="M63 51l1-2v11l-1-9zM63 67l-1 1 2-1h-1zM63 70l-1 2 2-1-1-1z"/>
  <path class="st0" d="M101 58L65 208c-1 3-7 30-10 29l-1-1c-3-1 3-27 4-30L90 55c0-3 3-5 7-4 3 1 5 4 4 7z"/>
  <path class="st1" d="M101 56l-10-3c-1 0-2-2-1-3 0-1 1-2 2-1l10 3c1 0 2 1 2 3-1 1-2 2-3 1z"/>
  <path class="st1" d="M102 52l-10-3c-1-1-2-2-1-3l2-2 10 4 2 2c-1 2-2 2-3 2z"/>
  <path class="st1" d="M102 48l-7-2c-2-1-3-3-3-5l4-16c0-2 3-4 5-3l6 2c2 1 3 3 3 6l-4 15c0 3-2 4-4 3z"/>
  <linearGradient id="SVGID_2_" gradientUnits="userSpaceOnUse" x1="148" y1="67.7" x2="147.9" y2="53.2" gradientTransform="rotate(15 329 -114)">
    <stop offset="0" stop-color="#ba8e59"/>
    <stop offset="1" stop-color="#4d3b3b"/>
  </linearGradient>
  <path d="M106 26l-5-1c-2-1-3-4-3-6l4-15c0-3 3-4 5-3l4 1c2 1 4 3 3 6l-3 15c-1 3-3 4-5 3z" fill="url(#SVGID_2_)" stroke="#000" stroke-miterlimit="10"/>
  <path class="st3" d="M106 26h3l-3 13c0 3 4-11 0-13zM104 48l-3 1 3 1v-2zM103 52c-1 2-3 1-3 1l3 1v-2z"/>
  <g>
    <path class="st5" d="M79 88L62 241c-1 3-3 30-7 30h-1c-4 0-1-28-1-31L65 86c0-3 3-5 7-5 4 1 7 3 7 7z"/>
    <path class="st1" d="M78 85l-12-1c-2 0-3-1-3-2l3-2 13 1 2 2c0 2-1 3-3 2z"/>
    <path class="st1" d="M79 81l-13-1-2-2c0-2 1-3 2-3l13 2c2 0 2 1 2 2l-2 2z"/>
    <path class="st1" d="M77 77h-8c-3-1-5-3-5-5l2-16c0-3 3-4 5-4h8c3 1 5 3 4 5l-1 16c0 3-3 5-5 4z"/>
    <path class="st3" d="M79 55l4-1-2 13s2-11-2-12zM80 77l-3 1h4l-1-1zM79 81c0 2-2 1-2 1l3 1c1-2-1-2-1-2z"/>
    <linearGradient id="SVGID_3_" gradientUnits="userSpaceOnUse" x1="86.2" y1="-19" x2="86.1" y2="-37.7" gradientTransform="rotate(-8 490 62)">
      <stop offset="0" stop-color="#ba8e59"/>
      <stop offset="1" stop-color="#4d3b3b"/>
    </linearGradient>
    <path d="M71 53L58 31s6-9 21-9c14-1 20 14 20 14L80 53s-4 3-9 0z" fill="url(#SVGID_3_)" stroke="#000" stroke-miterlimit="10"/>
  </g>
  <path d="M72 172c-9 0-28 13-32 20 7-7 36-16 42-16-6-4-10-4-10-4z" fill="#fff"/>
  <g>
    <path class="st0" d="M51 61l13 127c0 3 2 25 1 26h-1l-4-25L44 62c0-3 1-5 3-6 2 0 4 2 4 5z"/>
    <path class="st1" d="M50 59l-5 1-2-2 1-2 6-1 1 2-1 2z"/>
    <path class="st1" d="M50 55l-6 1-1-2 1-2h5c1-1 2 0 2 1l-1 2z"/>
    <path class="st1" d="M49 52l-4 1-3-4-1-12c0-3 0-4 2-5h3l3 3 1 14-1 3z"/>
    <linearGradient id="SVGID_4_" gradientUnits="userSpaceOnUse" x1="43.6" y1="-41.7" x2="43.4" y2="-58.7" gradientTransform="rotate(-6 577 -6)">
      <stop offset="0" stop-color="#ba8e59"/>
      <stop offset="1" stop-color="#4d3b3b"/>
    </linearGradient>
    <path d="M42 4l-1 26 2 4 3-1 2-4-6-25z" fill="url(#SVGID_4_)" stroke="#000" stroke-miterlimit="10"/>
    <path class="st3" d="M47 34l1-1 1 11-2-10zM50 52l-1 1h1v-1zM50 56l-1 1h2c0-2-1-1-1-1z"/>
  </g>
  <g>
    <path class="st0" d="M24 95l31 124c0 2 6 24 3 25s-9-21-10-23L13 98c-1-3 1-6 4-6h1c3-1 6 0 6 3z"/>
    <path class="st1" d="M23 93l-10 3-2-2 1-2 10-3 3 2-2 2z"/>
    <path class="st1" d="M22 90l-10 2-2-1 1-3 10-2 3 1-2 3z"/>
    <path class="st1" d="M20 88l-7 1c-2 1-4-1-4-3L5 74c0-2 1-4 3-5l6-1c2-1 4 0 5 2l3 13c1 2 0 4-2 5z"/>
    <linearGradient id="SVGID_5_" gradientUnits="userSpaceOnUse" x1="23.2" y1="-46.7" x2="23.1" y2="-58.7" gradientTransform="rotate(-14 438 62)">
      <stop offset="0" stop-color="#ba8e59"/>
      <stop offset="1" stop-color="#4d3b3b"/>
    </linearGradient>
    <path d="M14 70l-5 1c-2 1-4-1-4-3L1 52l11-3 5 16c0 2-1 4-3 5z" fill="url(#SVGID_5_)" stroke="#000" stroke-miterlimit="10"/>
    <path class="st3" d="M15 71l3-2 2 10c0 1-2-9-5-8zM22 86l-2 2 3-1-1-1zM23 90l-2 1h3c0-2-1-1-1-1z"/>
  </g>
  <g>
    <path class="st0" d="M109 95L74 218c-1 2-7 24-10 24l-1-1c-3 0 3-22 4-25L98 92c0-2 3-4 6-3h1c3 1 4 4 4 6z"/>
    <path class="st1" d="M109 93l-10-2-2-3h1l2-1 10 3 1 2c0 1-1 2-2 1z"/>
    <path class="st1" d="M110 90l-10-3-2-2 3-2 10 3 1 2-2 2z"/>
    <path class="st1" d="M109 87l-6-2c-2 0-3-3-3-4l4-13c0-2 2-3 4-3l6 2c2 0 4 2 3 5l-4 12c0 2-2 3-4 3z"/>
    <linearGradient id="SVGID_6_" gradientUnits="userSpaceOnUse" x1="166.7" y1="108.7" x2="166.6" y2="96.8" gradientTransform="rotate(15 329 -114)">
      <stop offset="0" stop-color="#ba8e59"/>
      <stop offset="1" stop-color="#4d3b3b"/>
    </linearGradient>
    <path d="M113 69l-5-2c-2 0-3-2-2-4l3-12c1-3 3-4 5-3l4 1c2 0 3 3 3 5l-4 12c0 2-2 3-4 3z" fill="url(#SVGID_6_)" stroke="#000" stroke-miterlimit="10"/>
    <path class="st3" d="M113 68h4l-3 11c-1 3 3-9-1-11zM111 87h-2l2 1v-1zM110 90h-2c0 1 2 2 3 1l-1-1z"/>
  </g>
  <g>
    <path class="st5" d="M52 99l26 118c1 5 12 48 7 49l-1 1c-5 1-16-42-18-47L33 104c-1-5 2-10 7-11l1-1c5-1 10 2 11 7z"/>
    <path class="st1" d="M50 96l-16 4c-2 1-4 0-4-2-1-2 0-4 2-5l16-4c2 0 4 1 5 3 0 2-1 4-3 4z"/>
    <path class="st1" d="M48 89l-16 4c-2 1-4-1-4-3-1-2 0-4 2-4l16-4c2 0 4 1 5 3 0 2-1 4-3 4z"/>
    <path class="st1" d="M46 82l-16 4c-2 1-4-1-4-3l-8-32c-1-2 0-4 2-5l16-4c2 0 4 1 4 3l9 32c0 3-1 5-3 5z"/>
    <linearGradient id="SVGID_7_" gradientUnits="userSpaceOnUse" x1="28.3" y1="-131.4" x2="28" y2="-155" gradientTransform="rotate(-14 656 -35)">
      <stop offset="0" stop-color="#ba8e59"/>
      <stop offset="1" stop-color="#4d3b3b"/>
    </linearGradient>
    <path d="M36 47l-13 3c-2 1-4-1-5-3L9 12l20-6 9 36c1 2 0 4-2 5z" fill="url(#SVGID_7_)" stroke="#000" stroke-miterlimit="10"/>
    <path class="st3" d="M35 49c5-2 4-4 4-4l6 22s-5-19-10-18zM48 83c0 2-3 2-3 2l5-1c0-2-2-1-2-1zM49 90c0 2-2 2-2 2l4-1c1-2-2-1-2-1z"/>
  </g>
  <path d="M103 127c0-5-20-8-45-8-24 0-44 3-44 8v139c0 5 20 9 44 9 25 0 45-4 45-9h0V127h0z" fill="#fff" stroke="#231f20" stroke-miterlimit="10"/>
  <path d="M83 181c2 5 7 1 7-5s2-32 10-26 7 57 7 57-2 40-10 31l-2-5c0-13 0-15-9-14s9 38 17 32c9-6 24-24 22-65s-20-51-24-51-8-1-17 18c0 0-7 18-1 28z" fill="#fff" stroke="#231f20"/>
</svg>
