<svg height="275.1" viewBox="0 0 125.7 275.1" width="125.7" xmlns="http://www.w3.org/2000/svg" xmlns:xlink="http://www.w3.org/1999/xlink"><linearGradient id="a"><stop offset="0" stop-color="#ba8e59"/><stop offset="1" stop-color="#4d3b3b"/></linearGradient><linearGradient id="b" gradientTransform="matrix(.98480775 -.17364818 .17364818 .98480775 -13.438842 58.393332)" gradientUnits="userSpaceOnUse" x1="78" x2="77.9" xlink:href="#a" y1="-6.1" y2="-18.2"/><linearGradient id="c" gradientTransform="matrix(.96592583 .25881905 -.25881905 .96592583 -18.294968 -89.035922)" gradientUnits="userSpaceOnUse" x1="148" x2="147.9" xlink:href="#a" y1="67.7" y2="53.2"/><linearGradient id="d" gradientTransform="matrix(.99026807 -.1391731 .1391731 .99026807 -3.860086 68.798199)" gradientUnits="userSpaceOnUse" x1="86.2" x2="86.1" xlink:href="#a" y1="-19" y2="-37.7"/><linearGradient id="e" gradientTransform="matrix(.9945219 -.10452846 .10452846 .9945219 3.788037 60.280055)" gradientUnits="userSpaceOnUse" x1="43.6" x2="43.4" xlink:href="#a" y1="-41.7" y2="-58.7"/><linearGradient id="f" gradientTransform="matrix(.97029573 -.2419219 .2419219 .97029573 -1.988686 107.803455)" gradientUnits="userSpaceOnUse" x1="23.2" x2="23.1" xlink:href="#a" y1="-46.7" y2="-58.7"/><linearGradient id="g" gradientTransform="matrix(.96592583 .25881905 -.25881905 .96592583 -18.294968 -89.035922)" gradientUnits="userSpaceOnUse" x1="166.7" x2="166.6" xlink:href="#a" y1="108.7" y2="96.8"/><linearGradient id="h" gradientTransform="matrix(.97029573 -.2419219 .2419219 .97029573 27.95327 157.661114)" gradientUnits="userSpaceOnUse" x1="28.3" x2="28" xlink:href="#a" y1="-131.4" y2="-155"/><path d="m63 75-3 122c0 3 0 24-2 25-1 1-1-21-1-23l1-121 3-6c1-1 2 0 2 3z" fill="#216900" stroke="#000" stroke-miterlimit="10"/><g fill="#38373c"><path d="m63 74-4 2c-1 1-1 0-1-1l1-2 4-3 1 1z"/><path d="m63 70-4 3-1-1 1-3 4-3 1 2z"/><path d="m62 68-3 2-1-3v-12l2-5 3-2 1 3v12z"/></g><path d="m62 51-2 1c-1 1-1-1-1-2v-17l5-3v16z" fill="url(#b)" stroke="#000" stroke-miterlimit="10"/><path d="m63 51 1-2v11zm0 16-1 1 2-1zm0 3-1 2 2-1z" fill="#b5b2b4"/><path d="m101 58-36 150c-1 3-7 30-10 29l-1-1c-3-1 3-27 4-30l32-151c0-3 3-5 7-4 3 1 5 4 4 7z" fill="#216900" stroke="#000" stroke-miterlimit="10"/><path d="m101 56-10-3c-1 0-2-2-1-3 0-1 1-2 2-1l10 3c1 0 2 1 2 3-1 1-2 2-3 1z" fill="#38373c"/><path d="m102 52-10-3c-1-1-2-2-1-3l2-2 10 4 2 2c-1 2-2 2-3 2z" fill="#38373c"/><path d="m102 48-7-2c-2-1-3-3-3-5l4-16c0-2 3-4 5-3l6 2c2 1 3 3 3 6l-4 15c0 3-2 4-4 3z" fill="#38373c"/><path d="m106 26-5-1c-2-1-3-4-3-6l4-15c0-3 3-4 5-3l4 1c2 1 4 3 3 6l-3 15c-1 3-3 4-5 3z" fill="url(#c)" stroke="#000" stroke-miterlimit="10"/><path d="m106 26h3l-3 13c0 3 4-11 0-13zm-2 22-3 1 3 1zm-1 4c-1 2-3 1-3 1l3 1z" fill="#b5b2b4"/><path d="m79 88-17 153c-1 3-3 30-7 30h-1c-4 0-1-28-1-31l12-154c0-3 3-5 7-5 4 1 7 3 7 7z" fill="#b5b2b4" stroke="#000" stroke-miterlimit="10"/><path d="m78 85-12-1c-2 0-3-1-3-2l3-2 13 1 2 2c0 2-1 3-3 2z" fill="#38373c"/><path d="m79 81-13-1-2-2c0-2 1-3 2-3l13 2c2 0 2 1 2 2z" fill="#38373c"/><path d="m77 77h-8c-3-1-5-3-5-5l2-16c0-3 3-4 5-4h8c3 1 5 3 4 5l-1 16c0 3-3 5-5 4z" fill="#38373c"/><path d="m79 55 4-1-2 13s2-11-2-12zm1 22-3 1h4zm-1 4c0 2-2 1-2 1l3 1c1-2-1-2-1-2z" fill="#b5b2b4"/><path d="m71 53-13-22s6-9 21-9c14-1 20 14 20 14l-19 17s-4 3-9 0z" fill="url(#d)" stroke="#000" stroke-miterlimit="10"/><path d="m72 172c-9 0-28 13-32 20 7-7 36-16 42-16-6-4-10-4-10-4z" fill="#fff"/><path d="m51 61 13 127c0 3 2 25 1 26h-1l-4-25-16-127c0-3 1-5 3-6 2 0 4 2 4 5z" fill="#216900" stroke="#000" stroke-miterlimit="10"/><path d="m50 59-5 1-2-2 1-2 6-1 1 2z" fill="#38373c"/><path d="m50 55-6 1-1-2 1-2h5c1-1 2 0 2 1z" fill="#38373c"/><path d="m49 52-4 1-3-4-1-12c0-3 0-4 2-5h3l3 3 1 14z" fill="#38373c"/><path d="m42 4-1 26 2 4 3-1 2-4z" fill="url(#e)" stroke="#000" stroke-miterlimit="10"/><path d="m47 34 1-1 1 11zm3 18-1 1h1zm0 4-1 1h2c0-2-1-1-1-1z" fill="#b5b2b4"/><path d="m24 95 31 124c0 2 6 24 3 25s-9-21-10-23l-35-123c-1-3 1-6 4-6h1c3-1 6 0 6 3z" fill="#216900" stroke="#000" stroke-miterlimit="10"/><path d="m23 93-10 3-2-2 1-2 10-3 3 2z" fill="#38373c"/><path d="m22 90-10 2-2-1 1-3 10-2 3 1z" fill="#38373c"/><path d="m20 88-7 1c-2 1-4-1-4-3l-4-12c0-2 1-4 3-5l6-1c2-1 4 0 5 2l3 13c1 2 0 4-2 5z" fill="#38373c"/><path d="m14 70-5 1c-2 1-4-1-4-3l-4-16 11-3 5 16c0 2-1 4-3 5z" fill="url(#f)" stroke="#000" stroke-miterlimit="10"/><path d="m15 71 3-2 2 10c0 1-2-9-5-8zm7 15-2 2 3-1zm1 4-2 1h3c0-2-1-1-1-1z" fill="#b5b2b4"/><path d="m109 95-35 123c-1 2-7 24-10 24l-1-1c-3 0 3-22 4-25l31-124c0-2 3-4 6-3h1c3 1 4 4 4 6z" fill="#216900" stroke="#000" stroke-miterlimit="10"/><path d="m109 93-10-2-2-3h1l2-1 10 3 1 2c0 1-1 2-2 1z" fill="#38373c"/><path d="m110 90-10-3-2-2 3-2 10 3 1 2z" fill="#38373c"/><path d="m109 87-6-2c-2 0-3-3-3-4l4-13c0-2 2-3 4-3l6 2c2 0 4 2 3 5l-4 12c0 2-2 3-4 3z" fill="#38373c"/><path d="m113 69-5-2c-2 0-3-2-2-4l3-12c1-3 3-4 5-3l4 1c2 0 3 3 3 5l-4 12c0 2-2 3-4 3z" fill="url(#g)" stroke="#000" stroke-miterlimit="10"/><path d="m113 68h4l-3 11c-1 3 3-9-1-11zm-2 19h-2l2 1zm-1 3h-2c0 1 2 2 3 1z" fill="#b5b2b4"/><path d="m52 99 26 118c1 5 12 48 7 49l-1 1c-5 1-16-42-18-47l-33-116c-1-5 2-10 7-11l1-1c5-1 10 2 11 7z" fill="#b5b2b4" stroke="#000" stroke-miterlimit="10"/><path d="m50 96-16 4c-2 1-4 0-4-2-1-2 0-4 2-5l16-4c2 0 4 1 5 3 0 2-1 4-3 4z" fill="#38373c"/><path d="m48 89-16 4c-2 1-4-1-4-3-1-2 0-4 2-4l16-4c2 0 4 1 5 3 0 2-1 4-3 4z" fill="#38373c"/><path d="m46 82-16 4c-2 1-4-1-4-3l-8-32c-1-2 0-4 2-5l16-4c2 0 4 1 4 3l9 32c0 3-1 5-3 5z" fill="#38373c"/><path d="m36 47-13 3c-2 1-4-1-5-3l-9-35 20-6 9 36c1 2 0 4-2 5z" fill="url(#h)" stroke="#000" stroke-miterlimit="10"/><path d="m35 49c5-2 4-4 4-4l6 22s-5-19-10-18zm13 34c0 2-3 2-3 2l5-1c0-2-2-1-2-1zm1 7c0 2-2 2-2 2l4-1c1-2-2-1-2-1z" fill="#b5b2b4"/><path d="m103 127c0-5-20-8-45-8-24 0-44 3-44 8v139c0 5 20 9 44 9 25 0 45-4 45-9z" fill="#fff" stroke="#231f20" stroke-miterlimit="10"/><path d="m83 181c2 5 7 1 7-5s2-32 10-26 7 57 7 57-2 40-10 31l-2-5c0-13 0-15-9-14s9 38 17 32c9-6 24-24 22-65s-20-51-24-51-8-1-17 18c0 0-7 18-1 28z" fill="#fff" stroke="#231f20"/></svg>