<svg xmlns="http://www.w3.org/2000/svg" width="41.7" height="41.7" viewBox="0 0 41.7 41.7"><path fill="#93c741" d="M33.8 41.7H7.3a8.4 8.4 0 0 1-7.2-8.3v-25A8.2 8.2 0 0 1 8.2.1h25.9a8.3 8.3 0 0 1 7.4 6.6c.1.3.1.7.2 1V8c0 .2-.1.3-.1.5v24.7c0 .2.1.3.1.5v.4a.3.3 0 0 1-.1.2 8.2 8.2 0 0 1-6.8 7.2zM5.2 20.8v12.5a3.1 3.1 0 0 0 .7 2.1 3.6 3.6 0 0 0 2.9 1.2H33a3.4 3.4 0 0 0 3.6-3.6V8.6A3.3 3.3 0 0 0 33 5.1H8.6a3.4 3.4 0 0 0-3.5 3.4c.1 4.1.1 8.2.1 12.3z"/><path fill="#add571" d="M41.7 33.7c0-.2-.1-.3-.1-.5V8.5c0-.2.1-.3.1-.5z"/><path fill="#93c741" d="M20.9 32.3A11.5 11.5 0 1 1 32.3 21a11.5 11.5 0 0 1-11.4 11.3zm6.3-11.4a6.4 6.4 0 0 0-12.7-.1 6.4 6.4 0 0 0 6.4 6.4 6.3 6.3 0 0 0 6.3-6.3z"/><path fill="#94c843" d="M34.3 9.9a2.1 2.1 0 0 1-2.1 2.1 2.1 2.1 0 0 1-2-2.1 2 2 0 0 1 2-2.1 2.1 2.1 0 0 1 2.1 2.1z"/></svg>